<?xml version="1.0" standalone="no"?>
<!DOCTYPE svg PUBLIC "-//W3C//DTD SVG 20010904//EN"
 "http://www.w3.org/TR/2001/REC-SVG-20010904/DTD/svg10.dtd">
<svg version="1.0" xmlns="http://www.w3.org/2000/svg"
 width="413.000000pt" height="531.000000pt" viewBox="0 0 413.000000 531.000000"
 preserveAspectRatio="xMidYMid meet">

<g transform="translate(0.000000,531.000000) scale(0.100000,-0.100000)"
fill="#000000" stroke="none">
<path d="M2068 4819 c-9 -5 -30 -7 -47 -5 -17 2 -31 0 -31 -5 0 -5 -10 -9 -22
-8 -45 0 -148 -10 -158 -16 -5 -3 -15 -3 -20 0 -6 3 -13 -1 -16 -10 -4 -9 -13
-14 -22 -10 -8 3 -20 1 -26 -4 -6 -5 -39 -19 -74 -31 -34 -13 -65 -27 -68 -31
-3 -5 -14 -9 -25 -9 -10 0 -19 -4 -19 -10 0 -5 -7 -10 -15 -10 -8 0 -15 -4
-15 -10 0 -5 -6 -10 -13 -10 -24 0 -93 -38 -142 -79 -27 -23 -53 -41 -58 -41
-10 0 -86 -58 -110 -85 -72 -79 -89 -95 -98 -95 -6 0 -7 -4 -4 -10 3 -5 -1
-10 -9 -10 -9 0 -16 -4 -16 -10 0 -5 -4 -10 -9 -10 -18 0 -83 -66 -96 -97 -8
-18 -19 -33 -24 -33 -6 0 -11 -7 -11 -15 0 -8 -4 -15 -8 -15 -4 0 -14 -21 -21
-47 -8 -27 -22 -64 -32 -83 -82 -156 -109 -313 -105 -600 3 -190 23 -337 57
-426 12 -34 6 -40 -26 -26 -65 30 -101 2 -121 -93 -8 -38 -13 -74 -10 -81 2
-6 0 -16 -5 -21 -6 -6 -4 -46 5 -109 8 -54 17 -135 21 -179 12 -142 43 -252
87 -305 22 -27 61 -50 84 -50 24 0 24 0 44 -160 10 -76 35 -213 59 -311 14
-59 62 -181 88 -222 14 -21 28 -62 33 -90 11 -63 51 -191 73 -233 40 -77 107
-165 181 -240 118 -117 480 -402 619 -486 60 -36 65 -38 155 -38 51 0 103 5
115 11 63 33 477 397 565 497 60 68 127 162 155 218 20 40 57 171 57 202 0 14
20 56 45 96 106 171 146 300 174 566 l17 166 41 41 c25 25 46 58 52 80 16 61
40 184 46 238 3 28 17 95 31 150 27 105 27 114 0 235 -23 104 -54 127 -130 95
-18 -8 -19 -5 -12 31 42 239 59 564 36 714 -15 95 -42 214 -52 225 -4 5 -8 19
-8 31 0 13 -5 26 -11 29 -6 4 -8 12 -6 19 3 7 -3 28 -13 48 -9 20 -20 48 -24
62 -3 14 -11 26 -16 26 -6 0 -10 6 -10 14 0 7 -18 32 -40 54 -22 22 -40 44
-40 49 0 17 -158 193 -174 193 -4 0 -19 11 -34 25 -15 14 -32 25 -39 25 -7 0
-13 6 -13 13 0 19 -27 42 -85 73 -28 14 -58 34 -68 45 -10 10 -26 19 -36 19
-10 0 -28 9 -41 20 -13 12 -29 19 -36 16 -7 -3 -20 4 -30 15 -9 10 -23 19 -31
19 -7 0 -13 5 -13 10 0 6 -6 10 -14 10 -8 0 -16 5 -18 11 -2 6 -13 12 -23 13
-31 2 -115 30 -115 37 0 4 -9 5 -20 2 -11 -3 -20 -1 -20 5 0 7 -14 9 -34 7
-22 -3 -38 1 -47 11 -8 10 -14 12 -19 4 -5 -8 -18 -9 -42 -2 -20 5 -41 6 -50
1z m-213 -699 c3 -5 1 -10 -4 -10 -6 0 -11 5 -11 10 0 6 2 10 4 10 3 0 8 -4
11 -10z m241 -22 c5 -3 36 -6 69 -7 67 -2 103 -21 40 -21 -57 0 -30 -21 32
-25 57 -3 93 -13 93 -25 0 -5 -7 -7 -15 -4 -31 12 -13 -13 20 -28 19 -8 35
-12 35 -7 0 5 -4 9 -10 9 -5 0 -10 5 -10 10 0 18 22 10 42 -15 11 -14 26 -25
34 -25 8 0 14 -4 14 -10 0 -5 -7 -10 -16 -10 -8 0 -12 -5 -9 -10 4 -7 13 -7
24 0 14 7 21 4 31 -15 7 -13 18 -21 23 -18 6 4 8 0 4 -9 -4 -11 2 -18 19 -22
23 -6 23 -8 9 -22 -15 -15 -14 -18 1 -35 14 -15 14 -19 3 -20 -10 0 -11 -2 -1
-6 6 -2 12 -11 12 -18 0 -7 6 -16 13 -18 9 -4 8 -8 -3 -16 -10 -7 -18 -6 -27
1 -10 8 -13 6 -13 -5 0 -8 6 -18 13 -20 6 -3 1 -6 -12 -6 -18 -1 -22 -5 -18
-21 3 -13 0 -20 -9 -20 -8 0 -14 5 -14 11 0 8 -5 8 -15 -1 -12 -10 -16 -9 -21
4 -3 9 -10 13 -15 10 -12 -7 -11 -16 7 -39 13 -17 16 -18 24 -5 8 13 10 12 10
-4 0 -14 -5 -17 -25 -12 -33 8 -32 1 7 -42 31 -36 31 -37 9 -42 -21 -5 -24
-11 -14 -37 8 -21 25 -14 18 7 -6 19 8 29 18 13 2 -5 2 -2 1 5 -2 6 3 12 11
12 18 0 20 -29 2 -44 -7 -6 -10 -10 -8 -9 7 5 51 -65 51 -80 0 -8 7 -17 15
-21 10 -3 15 1 15 12 0 13 6 10 26 -13 14 -16 23 -23 20 -13 -2 9 3 23 12 32
16 14 19 13 31 -14 13 -30 38 -43 27 -15 -3 8 -1 15 4 15 10 0 24 -20 25 -35
0 -5 5 -11 10 -12 6 -1 9 5 7 13 -3 13 1 13 19 4 11 -7 32 -10 45 -7 21 4 24
1 18 -16 -4 -14 -3 -17 6 -12 7 4 16 1 21 -6 13 -20 11 -29 -6 -29 -17 0 -20
-11 -6 -25 6 -6 -1 -11 -20 -12 -16 -1 -29 2 -29 7 0 6 5 10 12 10 6 0 8 3 5
7 -4 3 -15 -1 -24 -9 -10 -8 -25 -16 -33 -16 -8 -1 -40 -6 -70 -12 -30 -6 -65
-8 -77 -5 -14 3 -26 -1 -35 -13 -14 -21 -55 -35 -63 -22 -3 4 -21 4 -41 0 -20
-5 -43 -6 -52 -3 -10 4 -13 2 -8 -5 5 -8 0 -12 -13 -12 -12 0 -21 -5 -21 -11
0 -6 -7 -8 -16 -5 -18 7 -47 -11 -39 -24 2 -4 -9 -6 -25 -4 -30 4 -41 -10 -17
-19 6 -3 -7 -6 -30 -6 -24 -1 -43 -6 -43 -12 0 -7 -16 -10 -42 -7 -38 3 -47 0
-76 -30 -27 -26 -41 -32 -65 -30 -38 4 -34 23 5 23 14 0 30 3 34 8 4 4 -2 7
-14 7 -12 0 -22 5 -22 10 0 6 -7 10 -16 10 -13 0 -14 3 -5 14 9 10 8 15 -4 20
-17 6 -47 -3 -57 -18 -5 -7 -8 -7 -8 2 0 15 -32 16 -47 1 -8 -8 -13 -8 -17 0
-4 6 -2 11 5 11 7 0 2 9 -11 20 -13 12 -31 18 -41 15 -9 -3 -20 -1 -24 5 -3 5
-16 10 -28 11 -21 0 -21 1 -2 9 11 5 14 9 8 9 -7 1 -13 8 -13 16 0 8 -9 15
-21 15 -11 0 -17 -4 -14 -10 3 -5 2 -10 -4 -10 -5 0 -18 -3 -28 -6 -16 -6 -16
-5 2 10 19 17 18 17 -24 11 -24 -3 -49 -1 -56 5 -6 5 -43 11 -81 12 -49 1 -74
7 -87 19 -19 17 -62 30 -104 31 -26 0 -32 18 -7 18 14 0 14 2 3 16 -8 10 -15
12 -17 5 -3 -10 -72 -17 -72 -7 0 2 -3 11 -6 20 -3 9 -1 16 5 16 6 0 11 -7 11
-16 0 -25 18 -6 25 27 4 17 9 28 12 25 3 -3 17 4 32 15 23 18 27 19 37 5 12
-16 29 -23 20 -8 -9 15 42 52 61 45 12 -5 15 -2 10 10 -4 10 -2 17 4 17 6 0 8
7 5 16 -3 9 -2 12 5 9 5 -4 16 -2 24 5 9 7 15 8 20 0 3 -5 11 -10 16 -10 6 0
8 4 5 9 -3 4 -2 28 3 52 7 35 9 38 10 14 1 -19 4 -26 11 -19 6 6 6 22 1 39 -6
25 -12 30 -34 27 -15 -1 -27 2 -27 8 0 5 15 10 33 10 22 0 28 3 18 9 -8 5 -12
18 -8 30 6 23 3 24 -30 15 -15 -4 -23 -14 -23 -27 0 -14 -3 -18 -10 -11 -15
15 -4 37 27 51 23 11 30 10 49 -8 14 -13 24 -17 29 -10 8 14 -18 41 -39 41
-11 0 -16 9 -16 29 0 41 -9 61 -26 54 -17 -6 -18 9 -2 25 9 9 8 12 -5 12 -9 0
-17 -5 -17 -12 0 -9 -3 -9 -11 -1 -13 13 -2 36 12 27 6 -3 13 4 16 15 7 27 25
22 34 -10 l7 -24 1 27 c1 14 -5 28 -11 31 -10 3 -8 10 5 23 16 17 17 17 17 1
0 -18 15 -23 24 -9 6 9 -30 43 -37 36 -3 -3 -8 0 -12 7 -6 9 -1 10 18 5 14 -3
29 -1 32 4 5 8 11 7 20 0 15 -12 35 -6 35 10 0 5 -7 7 -15 4 -26 -10 -19 43 8
57 20 11 21 11 8 -5 -22 -26 -4 -32 23 -7 21 20 27 21 45 9 19 -11 23 -11 32
4 5 10 19 23 30 29 19 10 20 8 14 -11 -5 -16 -3 -21 6 -18 8 3 14 11 14 19 0
8 11 15 25 17 24 3 25 3 5 -12 -20 -15 -19 -15 6 -16 19 0 28 6 33 23 l6 22
24 -27 c22 -25 46 -28 27 -4 -4 6 -11 19 -14 28 -5 15 -2 16 20 7 25 -9 93 -3
93 10 0 7 83 6 96 -1z m-381 -37 c-3 -6 -14 -9 -25 -8 -24 2 -15 17 11 17 11
0 18 -4 14 -9z m652 -37 c-3 -3 -12 -4 -19 -1 -8 3 -5 6 6 6 11 1 17 -2 13 -5z
m270 -160 c-3 -3 -12 -4 -19 -1 -8 3 -5 6 6 6 11 1 17 -2 13 -5z m-73 -39 c-4
-8 -11 -12 -16 -9 -6 4 -5 10 3 15 19 12 19 11 13 -6z m-1086 -35 c13 0 18
-10 20 -40 1 -22 -2 -40 -8 -40 -5 0 -10 16 -10 35 0 19 -4 35 -10 35 -5 0
-10 -16 -10 -35 0 -19 -4 -35 -10 -35 -5 0 -10 7 -10 15 0 8 -5 15 -11 15 -5
0 -7 5 -4 10 4 6 11 7 17 4 6 -4 8 1 3 15 -3 11 -3 26 1 33 6 9 9 9 12 0 2 -7
11 -12 20 -12z m-151 -62 c-3 -8 -6 -5 -6 6 -1 11 2 17 5 13 3 -3 4 -12 1 -19z
m113 -66 c0 -7 -4 -11 -9 -8 -5 3 -12 -6 -15 -19 -4 -14 -11 -23 -16 -20 -6 4
-7 12 -3 18 4 7 6 20 5 29 -2 12 3 16 17 15 12 -1 21 -7 21 -15z m7 -54 c-3
-8 -6 -5 -6 6 -1 11 2 17 5 13 3 -3 4 -12 1 -19z m1040 -10 c-3 -7 -5 -2 -5
12 0 14 2 19 5 13 2 -7 2 -19 0 -25z m23 -23 c0 -17 -5 -25 -17 -24 -11 0 -13
3 -5 6 6 2 12 13 12 24 0 10 2 19 5 19 3 0 5 -11 5 -25z m60 -133 c0 -13 -12
-22 -22 -16 -10 6 -1 24 13 24 5 0 9 -4 9 -8z m50 -1 c0 -5 -7 -14 -15 -21
-12 -10 -15 -10 -15 2 0 8 3 18 7 21 9 10 23 9 23 -2z m-40 -225 c0 -2 -7 -6
-15 -10 -8 -3 -15 -1 -15 4 0 6 7 10 15 10 8 0 15 -2 15 -4z m-1760 -76 c0 -5
-2 -10 -4 -10 -3 0 -8 5 -11 10 -3 6 -1 10 4 10 6 0 11 -4 11 -10z m333 3 c-7
-2 -19 -2 -25 0 -7 3 -2 5 12 5 14 0 19 -2 13 -5z m114 -9 c-3 -3 -12 -4 -19
-1 -8 3 -5 6 6 6 11 1 17 -2 13 -5z m27 -19 c-4 -10 0 -15 11 -15 9 0 59 -14
111 -31 77 -25 94 -34 94 -50 0 -11 5 -17 10 -14 6 3 10 0 10 -7 0 -10 -31
-13 -140 -13 -136 0 -139 1 -150 23 -7 16 -7 29 0 42 7 13 6 20 -3 24 -6 3 -2
3 11 0 12 -3 23 -1 23 5 1 6 3 16 4 21 1 6 3 15 4 20 0 6 5 10 11 10 5 0 7 -7
4 -15z m-57 -11 c-3 -3 -12 -4 -19 -1 -8 3 -5 6 6 6 11 1 17 -2 13 -5z m1540
-21 c-3 -5 14 -6 37 -5 51 4 71 -13 57 -50 -14 -36 -60 -51 -159 -51 -140 1
-142 1 -136 18 7 16 142 81 161 77 7 -2 13 2 13 8 0 5 7 10 16 10 8 0 13 -3
11 -7z m-1953 -18 c-4 -8 -8 -15 -10 -15 -2 0 -4 7 -4 15 0 8 4 15 10 15 5 0
7 -7 4 -15z m3 -47 c-3 -8 -6 -5 -6 6 -1 11 2 17 5 13 3 -3 4 -12 1 -19z
m1230 -34 c3 3 0 6 -7 6 -12 0 -12 2 -1 13 11 10 14 9 18 -1 3 -6 9 -10 14 -6
5 3 9 1 9 -4 0 -5 13 -16 30 -24 l30 -14 -20 -22 c-12 -12 -17 -22 -13 -22 5
0 14 -14 22 -31 10 -24 16 -28 23 -18 7 10 8 6 4 -13 -3 -15 -2 -29 3 -32 10
-6 -13 -61 -30 -71 -5 -4 -9 -15 -9 -25 0 -10 -9 -22 -21 -25 -16 -5 -18 -10
-8 -21 9 -11 8 -14 -7 -15 -18 -1 -18 -2 -1 -6 11 -3 16 -11 13 -19 -3 -7 3
-18 12 -23 14 -9 13 -10 -10 -11 -16 0 -28 3 -28 8 0 11 -79 8 -84 -3 -2 -5
12 -10 31 -11 34 -1 62 -18 50 -30 -4 -4 -16 1 -26 10 -19 17 -20 17 -23 -6
-2 -15 -11 -24 -25 -26 -19 -3 -23 2 -25 25 -3 55 4 106 16 115 6 4 4 14 -5
24 -8 9 -14 34 -15 55 0 44 -11 60 -24 39 -5 -8 -12 -11 -17 -7 -4 5 -2 11 4
15 7 5 11 26 9 56 -3 40 1 52 21 74 14 15 31 26 39 24 28 -6 13 8 -18 17 -26
7 -28 9 -10 10 12 1 22 6 22 11 0 6 11 3 25 -6 14 -9 28 -14 32 -10z m-607
-36 c0 -4 10 -8 23 -9 19 -1 18 -2 -6 -9 -18 -6 -38 -5 -53 2 -18 9 -28 8 -36
0 -16 -16 -59 -15 -81 3 -18 13 -17 14 5 18 38 7 148 3 148 -5z m1319 -4 c55
-11 33 -22 -51 -26 -87 -4 -108 -1 -108 12 0 16 102 25 159 14z m-298 -106
c-33 -35 -57 -88 -40 -88 5 0 9 5 9 10 0 6 10 8 24 4 13 -3 26 -1 30 4 3 5 18
8 33 6 15 -2 60 -6 100 -9 70 -6 145 -22 111 -24 -10 -1 -15 -7 -12 -14 4 -11
-7 -12 -56 -5 -34 4 -70 13 -80 18 -18 10 -55 13 -102 8 -20 -2 -20 -1 -12
-22 3 -8 11 -13 18 -10 6 2 23 -7 36 -21 13 -14 31 -25 41 -25 10 0 20 -4 23
-9 7 -10 124 -24 221 -26 128 -3 135 -5 135 -20 0 -8 3 -14 8 -14 39 6 50 -3
66 -55 19 -59 11 -121 -19 -146 -8 -7 -15 -21 -15 -31 0 -11 -7 -19 -15 -19
-9 0 -12 -6 -9 -15 4 -10 0 -15 -12 -16 -11 0 -14 -3 -6 -6 20 -8 14 -20 -18
-32 -16 -5 -30 -15 -30 -20 0 -6 -10 -11 -21 -11 -16 0 -19 -3 -12 -12 6 -7
13 -26 16 -43 4 -16 4 -25 1 -19 -8 18 -49 4 -59 -19 -6 -12 -14 -23 -20 -23
-40 -6 -50 -17 -53 -57 -3 -48 -9 -57 -23 -37 -8 13 -10 13 -19 0 -8 -12 -11
-13 -19 -1 -11 17 -25 -3 -17 -24 3 -8 1 -17 -4 -20 -6 -4 -11 1 -11 9 -1 9
-3 21 -4 26 -1 6 -3 19 -4 31 0 12 -10 23 -20 26 -16 4 -18 9 -10 30 12 32 12
33 -6 33 -8 0 -15 -4 -15 -10 0 -5 -4 -10 -10 -10 -5 0 -10 12 -10 26 0 14 -4
23 -10 19 -6 -3 -13 1 -16 9 -3 9 -12 16 -20 16 -8 0 -14 9 -14 20 0 10 -6 23
-14 27 -21 12 -56 80 -56 108 0 14 -5 25 -10 25 -6 0 -8 11 -4 25 3 14 3 33
-1 42 -7 17 -8 16 -15 -2 -6 -16 -8 -13 -14 18 -4 22 -13 37 -21 37 -18 0 -20
16 -2 23 9 4 9 8 1 14 -7 4 -14 17 -16 28 -2 11 -10 19 -17 17 -8 -2 -11 3 -8
11 3 8 0 39 -8 68 -7 30 -13 49 -14 42 -2 -24 -31 0 -31 26 0 20 -2 23 -10 11
-5 -8 -12 -11 -17 -7 -4 4 -1 18 6 30 10 15 10 22 2 25 -6 2 -11 8 -11 14 0 5
9 7 19 3 11 -3 25 1 34 10 20 19 31 19 23 0 -3 -9 1 -18 9 -21 10 -4 13 -14 9
-29 -3 -13 1 -28 10 -38 20 -20 20 -27 0 -27 -12 0 -15 -6 -10 -22 3 -13 6
-28 6 -35 0 -6 8 -12 18 -12 41 -1 84 -14 71 -22 -15 -9 29 -23 58 -17 19 3
19 4 -39 55 -29 25 -58 61 -58 71 0 6 -6 12 -12 15 -10 3 -9 8 2 23 14 18 14
18 -3 5 -21 -17 -22 -15 -30 27 -5 25 -3 32 6 29 6 -2 11 -10 10 -16 -5 -21
14 -11 56 29 50 48 75 54 32 8z m-923 8 c15 -8 36 -18 47 -22 14 -6 3 -10 -40
-14 -33 -4 -61 -6 -63 -4 -7 5 11 54 20 54 5 0 22 -6 36 -14z m111 -10 c7 -6
19 -11 25 -12 6 0 20 -2 31 -3 17 -1 18 -3 5 -11 -13 -8 -12 -10 3 -10 9 0 17
5 17 10 0 6 10 10 23 11 21 0 21 1 2 9 -16 7 -17 9 -3 9 9 1 19 -3 22 -8 9
-14 56 0 57 18 0 11 3 9 9 -7 5 -12 16 -25 24 -28 8 -3 13 -11 11 -17 -2 -7
-6 -25 -10 -40 -5 -24 -8 -27 -20 -17 -12 10 -15 9 -15 -4 0 -9 5 -16 11 -16
5 0 7 -5 4 -10 -4 -6 -10 -8 -15 -5 -4 3 -10 0 -12 -5 -4 -13 -88 -24 -88 -11
0 5 4 11 10 13 6 2 6 14 1 33 l-9 30 -1 -27 c-1 -21 -7 -28 -30 -33 -34 -7
-47 -31 -29 -54 7 -9 13 -17 14 -19 3 -6 48 20 55 31 12 18 41 -2 38 -25 -2
-13 0 -29 4 -35 10 -15 -10 -56 -23 -48 -5 3 -12 -7 -16 -22 -7 -34 -36 -97
-46 -101 -5 -2 -8 -15 -8 -28 0 -15 -6 -24 -15 -24 -10 0 -15 -10 -15 -29 0
-16 -6 -36 -14 -43 -7 -8 -17 -24 -20 -36 -4 -12 -12 -22 -17 -22 -5 0 -9 -8
-9 -19 0 -10 -7 -24 -15 -31 -8 -7 -15 -19 -15 -26 0 -8 -4 -14 -10 -14 -5 0
-9 -17 -8 -37 1 -20 -4 -39 -10 -41 -7 -2 -12 -13 -12 -24 0 -15 -5 -18 -22
-14 -13 3 -17 3 -10 0 10 -5 10 -9 0 -22 -10 -12 -10 -16 0 -19 22 -8 13 -20
-12 -16 -17 4 -27 -1 -35 -16 -15 -27 -37 -27 -44 -1 -3 12 -17 22 -35 26 -21
4 -29 11 -25 20 3 8 -1 14 -9 14 -19 0 -68 23 -68 33 0 4 7 7 16 7 9 0 14 6
11 13 -2 6 -14 11 -27 9 -17 -2 -21 2 -16 14 4 11 -1 22 -13 31 -11 7 -18 20
-15 27 3 8 -6 23 -20 34 -17 13 -26 30 -26 47 0 24 -3 27 -26 22 -18 -3 -24
-1 -20 9 3 8 -1 14 -8 14 -16 0 -37 45 -30 64 3 9 -5 15 -26 20 -20 4 -34 13
-37 26 -3 11 -10 20 -15 20 -6 0 -8 6 -5 13 3 7 -1 21 -9 32 -18 25 -18 54 1
61 17 7 21 44 4 44 -6 0 -9 5 -7 11 2 6 6 9 10 7 3 -2 17 6 30 17 54 48 163
88 142 53 -6 -9 -3 -9 9 0 9 8 20 11 25 8 5 -3 36 -8 68 -11 60 -5 245 29 252
47 2 4 12 8 23 8 10 0 19 7 19 15 0 8 5 15 11 15 5 0 7 5 4 11 -5 6 -32 8 -78
3 -40 -3 -94 -7 -122 -9 -102 -5 -101 -5 -87 -14 11 -7 11 -9 -1 -14 -29 -11
-37 9 -9 25 37 22 306 46 317 29 3 -5 14 -7 25 -4 20 5 20 7 -6 51 -24 41 -21
46 15 18z m166 14 c3 -5 -1 -10 -9 -10 -9 0 -16 5 -16 10 0 6 4 10 9 10 6 0
13 -4 16 -10z m755 -9 c0 -5 3 -16 6 -24 4 -11 -6 -14 -51 -15 -31 0 -53 4
-49 9 3 5 13 9 22 9 9 0 26 7 36 15 23 17 36 19 36 6z m-1295 -17 c35 -23 32
-38 -7 -30 -36 7 -60 24 -52 37 8 14 32 11 59 -7z m1558 -3 c16 -6 14 -10 -17
-26 -41 -22 -57 -14 -31 15 20 22 21 22 48 11z m-1478 -100 c-3 -6 -11 -8 -17
-5 -6 4 -5 9 3 15 16 10 23 4 14 -10z m1425 10 c0 -11 -31 -24 -39 -16 -3 3 1
10 9 15 19 12 30 12 30 1z m-1070 -41 c0 -5 -5 -10 -11 -10 -5 0 -7 5 -4 10 3
6 8 10 11 10 2 0 4 -4 4 -10z m-970 -69 c0 -21 -5 -53 -12 -72 -12 -33 -12
-34 -18 -9 -4 14 -3 35 2 48 4 13 8 34 8 48 0 13 5 24 10 24 6 0 10 -17 10
-39z m2560 -25 c0 -7 3 -34 6 -60 9 -65 -12 -60 -23 7 -5 28 -8 55 -6 60 7 12
23 8 23 -7z m-1170 -21 c0 -8 -4 -15 -10 -15 -5 0 -10 7 -10 15 0 8 5 15 10
15 6 0 10 -7 10 -15z m-70 -40 c7 -9 10 -18 6 -22 -3 -3 -6 -1 -6 6 0 9 -5 9
-20 1 -17 -9 -20 -8 -20 10 0 24 22 26 40 5z m-290 -5 c0 -5 -4 -10 -10 -10
-5 0 -10 5 -10 10 0 6 5 10 10 10 6 0 10 -4 10 -10z m240 -34 c0 -3 -4 -8 -10
-11 -5 -3 -10 -1 -10 4 0 6 5 11 10 11 6 0 10 -2 10 -4z m-127 -223 c-7 -2
-19 -2 -25 0 -7 3 -2 5 12 5 14 0 19 -2 13 -5z m42 -3 c3 -5 1 -10 -4 -10 -6
0 -11 5 -11 10 0 6 2 10 4 10 3 0 8 -4 11 -10z m49 -15 c4 -12 10 -13 31 -3
19 9 28 9 37 0 17 -17 28 -15 21 6 -4 11 0 10 11 -5 19 -25 41 -30 50 -10 3 9
8 8 18 -4 7 -9 19 -14 26 -12 6 3 12 0 12 -5 0 -5 11 -12 25 -14 14 -3 25 -1
25 3 0 5 6 9 14 9 12 0 12 -4 0 -30 -9 -16 -21 -31 -27 -31 -7 -1 -22 -3 -34
-4 -26 -3 -55 -24 -48 -35 6 -10 -43 -30 -75 -30 -49 0 -93 8 -100 19 -3 7
-14 9 -23 5 -10 -4 -19 0 -23 9 -6 16 -24 22 -88 32 -30 5 -40 2 -54 -16 -15
-17 -24 -20 -50 -14 -18 3 -32 10 -32 15 0 4 -12 11 -26 14 l-26 7 26 26 c14
14 26 30 26 34 0 13 34 11 49 -3 10 -11 15 -10 25 5 7 9 22 17 32 17 16 0 16
-2 4 -10 -8 -5 -11 -12 -7 -16 4 -4 15 0 25 9 13 12 28 15 50 11 18 -4 32 -2
32 3 0 5 10 9 23 9 12 -1 21 4 20 12 -4 17 24 15 31 -3z m431 -65 c19 0 19
-24 1 -39 -8 -7 -32 -14 -53 -16 -35 -3 -38 -1 -38 23 -1 15 4 30 10 34 6 5 5
8 -3 8 -8 0 -16 -9 -19 -19 -5 -20 -31 -36 -42 -26 -3 3 1 10 8 14 7 5 11 13
7 19 -7 11 19 36 31 29 4 -2 17 -1 27 2 13 5 26 1 38 -11 10 -10 25 -18 33
-18z m385 -80 c0 -5 -2 -10 -4 -10 -3 0 -8 5 -11 10 -3 6 -1 10 4 10 6 0 11
-4 11 -10z m-1465 -100 c3 -5 -1 -10 -10 -10 -9 0 -13 5 -10 10 3 6 8 10 10
10 2 0 7 -4 10 -10z m305 -91 c0 -37 -13 -43 -41 -20 -19 16 -22 22 -11 32 10
11 12 8 12 -11 0 -17 3 -21 11 -13 8 8 8 17 0 31 -6 10 -7 22 -4 26 12 12 33
-17 33 -45z m37 -1 c-3 -8 -6 -5 -6 6 -1 11 2 17 5 13 3 -3 4 -12 1 -19z m23
-13 c0 -8 -4 -15 -10 -15 -5 0 -7 7 -4 15 4 8 8 15 10 15 2 0 4 -7 4 -15z
m414 -6 c-3 -5 -11 -9 -19 -9 -7 0 -16 -7 -19 -16 -3 -8 -2 -13 3 -10 4 3 8
-8 7 -24 -1 -29 -16 -44 -16 -17 0 8 -11 19 -25 25 -26 12 -36 35 -10 26 8 -4
15 -1 15 5 0 6 -8 11 -17 12 -12 0 -8 5 11 13 30 14 80 10 70 -5z m13 -27 c7
-5 9 -13 4 -21 -7 -11 -11 -9 -20 8 -12 21 -6 27 16 13z m58 -208 c-33 -8 -71
-19 -85 -24 -18 -8 -49 -5 -115 9 -72 15 -82 19 -49 20 22 1 65 -4 95 -9 43
-8 64 -7 95 4 21 8 57 15 79 14 37 0 36 -1 -20 -14z m-341 -297 c-17 -49 -34
-54 -34 -11 0 21 38 69 47 60 2 -2 -4 -24 -13 -49z m216 32 c0 -5 -4 -9 -10
-9 -5 0 -10 7 -10 16 0 8 5 12 10 9 6 -3 10 -10 10 -16z m-120 -6 c14 -10 33
-16 43 -15 13 3 17 -4 17 -25 0 -22 -5 -29 -20 -30 -11 -1 -20 2 -20 6 0 14
-61 5 -71 -10 -7 -12 -9 -12 -9 0 0 11 -3 11 -15 1 -12 -10 -15 -10 -15 3 0
24 20 71 33 79 18 12 30 10 57 -9z m213 -3 c16 0 26 4 22 10 -11 18 25 10 47
-10 19 -18 23 -18 31 -5 14 27 37 18 37 -15 0 -16 0 -33 0 -37 0 -4 -14 -8
-32 -10 -18 -1 -45 -5 -60 -9 -18 -4 -28 -2 -28 5 0 7 -8 8 -26 0 -15 -5 -28
-8 -29 -7 -1 2 -7 12 -13 23 l-11 20 -1 -20 c-1 -19 -1 -19 -14 -2 -16 21 -26
22 -26 2 0 -8 -7 -15 -15 -15 -10 0 -15 11 -15 35 0 24 4 33 13 29 7 -2 26 2
42 10 19 10 33 12 39 6 6 -6 23 -10 39 -10z m187 -21 c0 -14 -17 -10 -23 5 -4
10 -1 13 9 9 7 -3 14 -9 14 -14z m-1185 -89 c3 -5 1 -10 -4 -10 -6 0 -11 5
-11 10 0 6 2 10 4 10 3 0 8 -4 11 -10z m30 -40 c10 -11 16 -20 13 -20 -3 0
-13 9 -23 20 -10 11 -16 20 -13 20 3 0 13 -9 23 -20z m60 -68 c-3 -3 -11 0
-18 7 -9 10 -8 11 6 5 10 -3 15 -9 12 -12z m121 -108 c8 3 11 0 7 -10 -4 -12
-8 -12 -22 -2 -22 18 -50 51 -51 61 0 5 12 -6 26 -23 15 -17 33 -29 40 -26z
m34 -25 c-11 -8 -12 -12 -2 -16 6 -2 12 -10 12 -16 0 -6 -7 -4 -16 5 -17 17
-12 38 9 38 7 0 6 -4 -3 -11z m54 -74 l19 -30 -26 24 c-15 13 -24 28 -21 33 3
5 7 8 8 6 1 -2 10 -16 20 -33z m54 -55 c7 -11 11 -20 9 -20 -2 0 -12 9 -22 20
-10 11 -14 20 -9 20 5 0 15 -9 22 -20z"/>
<path d="M1980 4080 c-24 -8 -23 -8 8 -9 20 -1 31 3 27 9 -3 6 -7 10 -8 9 -1
-1 -13 -5 -27 -9z"/>
<path d="M2040 4080 c0 -5 5 -10 10 -10 6 0 10 5 10 10 0 6 -4 10 -10 10 -5 0
-10 -4 -10 -10z"/>
<path d="M1651 4021 c-8 -6 -9 -11 -3 -15 6 -3 14 -1 17 5 9 14 2 20 -14 10z"/>
<path d="M1819 4017 c7 -7 14 -8 21 -1 6 6 2 10 -12 11 -16 2 -18 -1 -9 -10z"/>
<path d="M2273 4023 c-15 -5 -17 -23 -4 -23 5 0 11 7 15 15 3 8 4 15 3 14 -1
0 -8 -3 -14 -6z"/>
<path d="M1760 4001 c0 -5 -8 -12 -17 -14 -14 -4 -12 -5 5 -6 12 0 22 3 22 8
0 5 8 12 18 14 13 4 11 5 -5 6 -13 0 -23 -3 -23 -8z"/>
<path d="M2215 3993 c11 -3 27 -10 35 -17 13 -10 13 -9 1 7 -7 9 -23 16 -35
16 -20 -1 -20 -2 -1 -6z"/>
<path d="M1824 3964 c-18 -14 -18 -15 4 -4 12 6 22 13 22 15 0 8 -5 6 -26 -11z"/>
<path d="M2470 3859 c0 -5 11 -9 25 -9 14 0 25 2 25 4 0 2 -11 6 -25 8 -14 3
-25 1 -25 -3z"/>
<path d="M2510 3759 c0 -5 5 -7 10 -4 6 3 10 8 10 11 0 2 -4 4 -10 4 -5 0 -10
-5 -10 -11z"/>
<path d="M2438 3703 c7 -3 16 -2 19 1 4 3 -2 6 -13 5 -11 0 -14 -3 -6 -6z"/>
<path d="M1535 3660 c-4 -6 3 -10 14 -10 25 0 27 6 6 13 -8 4 -17 2 -20 -3z"/>
<path d="M1468 3476 c-11 -8 -14 -17 -7 -27 7 -12 9 -11 9 3 0 9 6 18 13 21 6
2 10 7 7 10 -3 3 -13 0 -22 -7z"/>
<path d="M1410 3420 c0 -5 5 -10 11 -10 5 0 7 5 4 10 -3 6 -8 10 -11 10 -2 0
-4 -4 -4 -10z"/>
<path d="M1772 3181 c4 -13 18 -16 19 -4 0 4 -5 9 -11 12 -7 2 -11 -2 -8 -8z"/>
<path d="M2050 3080 c0 -5 5 -10 10 -10 6 0 10 5 10 10 0 6 -4 10 -10 10 -5 0
-10 -4 -10 -10z"/>
<path d="M2090 2950 c0 -5 7 -10 15 -10 8 0 15 5 15 10 0 6 -7 10 -15 10 -8 0
-15 -4 -15 -10z"/>
<path d="M2360 2610 c0 -5 5 -10 10 -10 6 0 10 5 10 10 0 6 -4 10 -10 10 -5 0
-10 -4 -10 -10z"/>
<path d="M2505 2570 c3 -5 8 -10 11 -10 2 0 4 5 4 10 0 6 -5 10 -11 10 -5 0
-7 -4 -4 -10z"/>
<path d="M2530 2220 c0 -5 5 -10 10 -10 6 0 10 5 10 10 0 6 -4 10 -10 10 -5 0
-10 -4 -10 -10z"/>
<path d="M2820 2204 c0 -11 5 -14 16 -10 9 3 20 6 25 6 5 0 9 5 9 10 0 6 -11
10 -25 10 -16 0 -25 -6 -25 -16z"/>
<path d="M2790 2170 c0 -5 5 -10 11 -10 5 0 7 5 4 10 -3 6 -8 10 -11 10 -2 0
-4 -4 -4 -10z"/>
<path d="M1804 2809 c-7 -12 15 -31 28 -23 4 3 8 12 8 20 0 17 -26 19 -36 3z"/>
<path d="M1771 2734 c0 -11 3 -14 6 -6 3 7 2 16 -1 19 -3 4 -6 -2 -5 -13z"/>
<path d="M1635 2650 c-10 -11 -16 -22 -13 -25 3 -3 13 4 23 15 10 11 16 22 13
25 -3 3 -13 -4 -23 -15z"/>
<path d="M1657 2616 c-4 -10 -5 -21 -2 -24 9 -9 17 6 13 25 -3 17 -4 17 -11
-1z"/>
<path d="M1062 2408 c6 -18 28 -21 28 -4 0 9 -7 16 -16 16 -9 0 -14 -5 -12
-12z"/>
<path d="M1120 2320 c0 -5 5 -10 10 -10 6 0 10 5 10 10 0 6 -4 10 -10 10 -5 0
-10 -4 -10 -10z"/>
<path d="M1200 2240 c0 -5 5 -10 10 -10 6 0 10 5 10 10 0 6 -4 10 -10 10 -5 0
-10 -4 -10 -10z"/>
<path d="M1388 2033 c7 -3 16 -2 19 1 4 3 -2 6 -13 5 -11 0 -14 -3 -6 -6z"/>
<path d="M1895 1390 c-3 -5 1 -10 9 -10 9 0 16 5 16 10 0 6 -4 10 -9 10 -6 0
-13 -4 -16 -10z"/>
<path d="M2165 269 c-44 -4 -124 -7 -177 -7 -88 0 -101 -2 -144 -27 -61 -36
-214 -183 -214 -205 0 -10 7 -21 16 -24 9 -3 225 -6 480 -6 l465 0 -12 23
c-21 38 -121 138 -179 177 -61 41 -135 81 -147 78 -4 0 -44 -5 -88 -9z"/>
</g>
</svg>
